<?xml version="1.0" encoding="UTF-8"?>
<svg width="650px" height="146px" viewBox="0 0 650 146" version="1.1" xmlns="http://www.w3.org/2000/svg" xmlns:xlink="http://www.w3.org/1999/xlink">
    <!-- Generator: Sketch 42 (36781) - http://www.bohemiancoding.com/sketch -->
    <title>vilanova-i-la-geltru-negatiu</title>
    <desc>Created with Sketch.</desc>
    <defs></defs>
    <g id="Page-1" stroke="none" stroke-width="1" fill="none" fill-rule="evenodd">
        <g id="vilanova-i-la-geltru-negatiu" fill="#FFFFFF">
            <g>
                <path d="M111.003,34.995 C90.716,14.706 72.603,0.66 72.603,0.66 C72.603,0.66 54.54,14.706 34.257,34.995 C14.066,55.183 0.009,73.363 0.009,73.363 C0.009,73.363 14.066,91.521 34.257,111.711 C54.54,131.993 72.573,146.045 72.573,146.045 C72.573,146.045 90.716,131.993 111.003,111.711 C131.191,91.521 145.192,73.334 145.192,73.334 C145.192,73.334 131.191,55.183 111.003,34.995 L111.003,34.995 Z M103.869,104.58 C87.354,121.094 72.603,132.417 72.603,132.417 C72.603,132.417 57.902,121.094 41.388,104.58 C24.953,88.144 13.608,73.367 13.608,73.367 C13.608,73.367 24.953,58.561 41.388,42.125 C57.902,25.608 72.603,14.284 72.603,14.284 C72.603,14.284 87.354,25.608 103.869,42.125 C120.305,58.561 131.565,73.339 131.565,73.339 C131.565,73.339 120.305,88.144 103.869,104.58 L103.869,104.58 Z M68.073,73.39 L68.073,119.654 C63.896,116.172 57.29,110.451 49.932,103.335 L49.903,73.363 L68.073,73.39 Z M40.843,73.363 L40.843,94.193 C30.108,82.902 22.948,73.707 22.699,73.388 L22.699,73.363 L40.843,73.363 Z M122.509,73.485 C121.667,74.556 114.62,83.436 104.337,94.248 L104.337,73.363 L122.595,73.363 L122.509,73.485 Z M95.278,73.363 L95.278,103.409 C87.902,110.538 81.294,116.259 77.132,119.718 L77.132,73.363 L95.278,73.363 Z M77.132,64.258 L77.132,55.171 C77.132,52.403 75.341,50.637 72.573,50.637 C69.804,50.637 68.044,52.403 68.044,55.171 L68.044,64.258 L49.899,64.258 L56.691,39.27 L56.691,32.452 L63.515,32.452 L63.515,39.27 L69.188,39.27 L69.188,32.452 L76.015,32.452 L76.015,39.27 L81.688,39.27 L81.688,32.452 L88.509,32.452 L88.509,39.27 L95.278,64.258 L77.132,64.258 L77.132,64.258 Z" id="Fill-2"></path>
                <polyline id="Fill-3" points="198.957 114.267 191.395 114.267 176.965 73.406 185.775 73.406 192.99 95.328 195.21 102.751 197.429 95.328 204.506 73.406 213.317 73.406 198.957 114.267"></polyline>
                <path d="M216.437,114.269 L224.277,114.269 L224.277,84.513 L216.437,84.513 L216.437,114.269 Z M216.437,79.763 L224.277,79.763 L224.277,73.382 L216.437,73.382 L216.437,79.763 Z" id="Fill-4"></path>
                <polygon id="Fill-5" points="230.519 114.267 238.428 114.267 238.428 73.416 230.519 73.416"></polygon>
                <path d="M261.668,101.224 L253.619,101.224 C250.984,101.224 249.805,102.336 249.805,104.071 C249.805,106.844 251.747,108.024 255.424,108.024 C257.713,108.024 260.35,107.329 261.668,106.635 L261.668,101.224 Z M261.668,114.267 L261.668,112.74 C260.211,113.711 257.297,114.613 254.868,114.613 C247.792,114.613 242.59,110.59 242.59,103.791 C242.59,98.519 247.169,95.121 253.619,95.121 L261.736,95.121 L261.736,93.871 C261.736,91.513 260.488,90.68 256.257,90.68 C252.857,90.68 248.486,91.582 245.573,92.831 L245.573,86.171 C248.279,85.131 252.996,84.16 256.742,84.16 C264.651,84.16 269.021,88.321 269.021,93.871 L269.021,114.267 L261.668,114.267 L261.668,114.267 Z" id="Fill-6"></path>
                <path d="M293.302,114.267 L293.302,95.467 C293.302,91.79 292.054,90.819 288.444,90.819 C286.434,90.819 283.312,91.513 281.578,92.206 L281.578,114.267 L274.224,114.267 L274.224,84.506 L281.578,84.506 L281.578,85.824 C283.729,84.715 286.018,84.228 288.444,84.228 C296.563,84.228 300.655,88.599 300.655,95.189 L300.655,114.267 L293.302,114.267" id="Fill-7"></path>
                <path d="M325.133,94.428 C325.133,91.998 323.398,90.541 320.831,90.541 L316.184,90.541 C313.616,90.541 311.882,91.998 311.882,94.428 L311.882,104.416 C311.882,106.914 313.616,108.371 316.184,108.371 L320.831,108.371 C323.398,108.371 325.133,106.914 325.133,104.416 L325.133,94.428 Z M320.763,114.891 L316.253,114.891 C309.938,114.891 304.599,110.521 304.599,104.207 L304.599,94.564 C304.599,88.252 309.938,83.883 316.253,83.883 L320.763,83.883 C327.075,83.883 332.416,88.252 332.416,94.564 L332.416,104.207 C332.416,110.521 327.075,114.891 320.763,114.891 L320.763,114.891 Z" id="Fill-8"></path>
                <polyline id="Fill-9" points="351.215 114.267 344.902 114.267 333.455 84.506 341.434 84.506 345.666 96.369 348.162 104.554 350.523 96.369 354.684 84.506 362.73 84.506 351.215 114.267"></polyline>
                <path d="M381.461,101.224 L373.41,101.224 C370.775,101.224 369.598,102.336 369.598,104.071 C369.598,106.844 371.539,108.024 375.217,108.024 C377.504,108.024 380.141,107.329 381.461,106.635 L381.461,101.224 Z M381.461,114.267 L381.461,112.74 C380.002,113.711 377.088,114.613 374.662,114.613 C367.584,114.613 362.381,110.59 362.381,103.791 C362.381,98.519 366.961,95.121 373.41,95.121 L381.529,95.121 L381.529,93.871 C381.529,91.513 380.279,90.68 376.049,90.68 C372.648,90.68 368.279,91.582 365.363,92.831 L365.363,86.171 C368.07,85.131 372.785,84.16 376.533,84.16 C384.443,84.16 388.814,88.321 388.814,93.871 L388.814,114.267 L381.461,114.267 L381.461,114.267 Z" id="Fill-10"></path>
                <path d="M407.375,114.267 L415.215,114.267 L415.215,84.552 L407.375,84.552 L407.375,114.267 Z M407.375,79.779 L415.215,79.779 L415.215,73.398 L407.375,73.398 L407.375,79.779 Z" id="Fill-11"></path>
                <polygon id="Fill-12" points="434.029 114.267 441.936 114.267 441.936 73.39 434.029 73.39"></polygon>
                <path d="M464.666,101.224 L456.621,101.224 C453.984,101.224 452.805,102.336 452.805,104.071 C452.805,106.844 454.748,108.024 458.422,108.024 C460.711,108.024 463.35,107.329 464.666,106.635 L464.666,101.224 Z M464.666,114.267 L464.666,112.74 C463.211,113.711 460.297,114.613 457.867,114.613 C450.793,114.613 445.59,110.59 445.59,103.791 C445.59,98.519 450.168,95.121 456.621,95.121 L464.736,95.121 L464.736,93.871 C464.736,91.513 463.486,90.68 459.256,90.68 C455.857,90.68 451.486,91.582 448.57,92.831 L448.57,86.171 C451.277,85.131 455.994,84.16 459.742,84.16 C467.648,84.16 472.021,88.321 472.021,93.871 L472.021,114.267 L464.666,114.267 L464.666,114.267 Z" id="Fill-13"></path>
                <path d="M512.568,114.476 L506.535,114.476 C496.752,114.476 491.271,109.412 491.271,100.323 L491.271,87.349 C491.271,78.54 497.377,72.921 508.197,72.921 C513.055,72.921 517.91,73.406 522.559,75.07 L522.559,82.286 C517.91,80.898 512.914,80.135 508.268,80.135 C501.469,80.135 498.832,82.771 498.832,87.488 L498.832,100.323 C498.832,105.319 500.637,107.329 506.463,107.329 L512.5,107.329 C514.996,107.329 517.078,105.734 517.078,103.168 L517.078,96.646 L508.338,96.646 L508.338,89.777 L524.641,89.777 L524.641,103.168 C524.641,109.757 518.883,114.476 512.568,114.476" id="Fill-14"></path>
                <path d="M547.949,93.871 C547.949,91.929 547.186,91.166 544.965,91.166 L539.83,91.166 C537.264,91.166 536.154,92.206 536.154,94.772 L536.154,96.369 L547.949,96.369 L547.949,93.871 Z M536.154,102.197 L536.154,103.515 C536.154,106.775 537.473,108.024 542.398,108.024 C546.215,108.024 549.959,107.052 552.805,105.873 L552.805,112.601 C549.959,113.92 546.422,114.544 542.467,114.544 C534.42,114.544 528.801,110.73 528.801,103.515 L528.801,94.98 C528.801,88.182 533.656,84.228 540.664,84.228 L544.826,84.228 C550.307,84.228 554.887,88.321 554.887,93.178 L554.887,102.197 L536.154,102.197 L536.154,102.197 Z" id="Fill-15"></path>
                <polygon id="Fill-16" points="560.088 114.267 567.996 114.267 567.996 73.379 560.088 73.379"></polygon>
                <path d="M586.33,114.613 C579.74,114.613 576.342,111.492 576.342,105.458 L576.342,90.749 L572.18,90.749 L572.18,84.506 L576.342,84.506 L576.342,73.379 L583.625,73.379 L583.625,84.506 L590.979,84.506 L590.979,90.749 L583.625,90.749 L583.625,104.761 C583.625,107.121 584.182,107.815 587.025,107.815 C589.385,107.815 592.713,107.261 594.102,106.844 L594.102,113.643 C591.674,114.267 589.314,114.613 586.33,114.613" id="Fill-17"></path>
                <path d="M619.908,93.386 L613.041,93.386 C613.18,92.692 613.18,92.414 613.18,92.067 C613.18,90.819 612.139,90.611 611.027,90.611 C608.602,90.611 605.965,91.582 604.576,92.484 L604.576,114.267 L597.223,114.267 L597.223,84.506 L604.576,84.506 L604.576,86.24 C606.518,85.06 608.879,84.299 611.168,84.299 C615.262,84.299 620.117,86.379 620.117,91.166 C620.117,91.859 620.047,92.553 619.908,93.386" id="Fill-18"></path>
                <path d="M637.527,81.576 L632.188,81.576 L638.152,73.39 L644.049,73.39 L637.527,81.576 Z M641.623,114.337 L641.623,112.879 C639.68,113.92 636.697,114.613 634.477,114.613 C626.982,114.613 622.195,110.453 622.195,103.584 L622.195,84.506 L629.621,84.506 L629.621,103.654 C629.621,106.706 630.938,107.953 634.754,107.953 C637.182,107.953 639.471,107.329 641.623,106.29 L641.623,84.506 L649.045,84.506 L649.045,114.337 L641.623,114.337 L641.623,114.337 Z" id="Fill-19"></path>
                <path d="M189.729,42.667 L188.326,38.38 L186.884,42.667 L185.854,45.676 L190.758,45.676 L189.729,42.667 Z M194.797,56.72 L192.448,49.879 L184.287,49.879 L181.979,56.72 L176.992,56.72 L186.183,32.445 L190.511,32.445 L199.783,56.72 L194.797,56.72 L194.797,56.72 Z" id="Fill-20"></path>
                <path d="M207.329,56.926 C205.434,56.926 203.373,56.72 201.477,56.226 L201.477,52.021 C203.373,52.393 205.392,52.64 207.206,52.64 C209.967,52.64 210.585,51.939 210.585,48.972 L210.585,32.458 L215.241,32.458 L215.241,48.972 C215.241,54.453 212.852,56.926 207.329,56.926" id="Fill-21"></path>
                <path d="M232.657,57.132 L229.607,57.132 C224.58,57.132 220.953,53.753 220.953,48.683 L220.953,32.445 L225.65,32.445 L225.65,48.683 C225.65,51.362 226.969,52.846 229.648,52.846 L232.534,52.846 C235.253,52.846 236.572,51.362 236.572,48.683 L236.572,32.445 L241.271,32.445 L241.271,48.683 C241.271,53.753 237.645,57.132 232.657,57.132" id="Fill-22"></path>
                <polyline id="Fill-23" points="263.153 56.72 253.675 43.943 251.368 40.193 251.573 44.685 251.573 56.72 246.956 56.72 246.956 32.445 250.749 32.445 260.146 45.138 262.701 49.055 262.454 44.027 262.454 32.445 267.07 32.445 267.07 56.72 263.153 56.72"></polyline>
                <polyline id="Fill-24" points="284.12 36.691 284.12 56.72 279.505 56.72 279.505 36.691 271.633 36.691 271.633 32.445 292.034 32.445 292.034 36.691 284.12 36.691"></polyline>
                <path d="M303.532,42.667 L302.13,38.38 L300.688,42.667 L299.659,45.676 L304.563,45.676 L303.532,42.667 Z M308.602,56.72 L306.255,49.879 L298.093,49.879 L295.784,56.72 L290.798,56.72 L299.988,32.445 L304.315,32.445 L313.59,56.72 L308.602,56.72 L308.602,56.72 Z" id="Fill-25"></path>
                <polyline id="Fill-26" points="336.33 56.72 336.33 45.303 336.537 40.894 334.682 44.561 330.52 51.362 328.091 51.362 323.886 44.561 322.03 40.853 322.237 45.303 322.237 56.72 317.58 56.72 317.58 32.445 321.577 32.445 329.283 45.509 336.992 32.445 340.947 32.445 340.947 56.72 336.33 56.72"></polyline>
                <polyline id="Fill-27" points="346.484 56.72 346.484 32.445 363.834 32.445 363.834 36.732 350.973 36.732 350.973 42.172 361.979 42.172 361.979 46.416 350.973 46.416 350.973 52.474 363.834 52.474 363.834 56.72 346.484 56.72"></polyline>
                <polyline id="Fill-28" points="386.016 56.72 376.535 43.943 374.229 40.193 374.434 44.685 374.434 56.72 369.818 56.72 369.818 32.445 373.609 32.445 383.006 45.138 385.561 49.055 385.316 44.027 385.316 32.445 389.932 32.445 389.932 56.72 386.016 56.72"></polyline>
                <polyline id="Fill-29" points="405.717 36.691 405.717 56.72 401.102 56.72 401.102 36.691 393.232 36.691 393.232 32.445 413.631 32.445 413.631 36.691 405.717 36.691"></polyline>
                <path d="M446.906,40.728 C446.906,37.68 445.832,36.732 442.371,36.732 L435.943,36.732 L435.943,52.474 L442.332,52.474 C445.629,52.474 446.906,51.362 446.906,48.107 L446.906,40.728 Z M442.371,56.72 L431.451,56.72 L431.451,32.445 L442.332,32.445 C448.305,32.445 451.398,35.412 451.398,40.728 L451.398,48.107 C451.398,53.959 447.766,56.72 442.371,56.72 L442.371,56.72 Z" id="Fill-30"></path>
                <polyline id="Fill-31" points="454.559 56.72 454.559 32.445 471.912 32.445 471.912 36.732 459.053 36.732 459.053 42.172 470.057 42.172 470.057 46.416 459.053 46.416 459.053 52.474 471.912 52.474 471.912 56.72 454.559 56.72"></polyline>
            </g>
        </g>
    </g>
</svg>