<?xml version="1.0" encoding="UTF-8"?>
<svg width="650px" height="146px" viewBox="0 0 650 146" version="1.1" xmlns="http://www.w3.org/2000/svg" xmlns:xlink="http://www.w3.org/1999/xlink">
    <!-- Generator: Sketch 42 (36781) - http://www.bohemiancoding.com/sketch -->
    <title>vilanova-i-la-geltru</title>
    <desc>Created with Sketch.</desc>
    <defs>
        <polygon id="path-1" points="72.622 146 0.06 146 0.06 0.615 72.622 0.615 145.184 0.615 145.184 146"></polygon>
    </defs>
    <g id="Page-1" stroke="none" stroke-width="1" fill="none" fill-rule="evenodd">
        <g id="vilanova-i-la-geltru">
            <g id="logo">
                <g id="Group-3">
                    <mask id="mask-2" fill="white">
                        <use xlink:href="#path-1"></use>
                    </mask>
                    <g id="Clip-2"></g>
                    <path d="M110.994,34.95 C90.707,14.661 72.594,0.615 72.594,0.615 C72.594,0.615 54.531,14.661 34.248,34.95 C14.058,55.138 0,73.318 0,73.318 C0,73.318 14.058,91.476 34.248,111.666 C54.531,131.948 72.564,146 72.564,146 C72.564,146 90.707,131.948 110.994,111.666 C131.183,91.476 145.184,73.289 145.184,73.289 C145.184,73.289 131.183,55.138 110.994,34.95 L110.994,34.95 Z M103.86,104.535 C87.346,121.049 72.594,132.372 72.594,132.372 C72.594,132.372 57.894,121.049 41.379,104.535 C24.944,88.099 13.6,73.322 13.6,73.322 C13.6,73.322 24.944,58.516 41.379,42.08 C57.894,25.563 72.594,14.239 72.594,14.239 C72.594,14.239 87.346,25.563 103.86,42.08 C120.296,58.516 131.557,73.294 131.557,73.294 C131.557,73.294 120.296,88.099 103.86,104.535 L103.86,104.535 Z M68.065,73.345 L68.065,119.609 C63.887,116.127 57.281,110.406 49.923,103.29 L49.895,73.318 L68.065,73.345 Z M40.834,73.318 L40.834,94.148 C30.1,82.857 22.94,73.662 22.69,73.343 L22.69,73.318 L40.834,73.318 Z M122.5,73.44 C121.658,74.511 114.611,83.391 104.328,94.203 L104.328,73.318 L122.586,73.318 L122.5,73.44 Z M95.27,73.318 L95.27,103.364 C87.894,110.493 81.285,116.214 77.123,119.673 L77.123,73.318 L95.27,73.318 Z M77.123,64.213 L77.123,55.126 C77.123,52.358 75.332,50.592 72.564,50.592 C69.795,50.592 68.035,52.358 68.035,55.126 L68.035,64.213 L49.891,64.213 L56.683,39.225 L56.683,32.407 L63.506,32.407 L63.506,39.225 L69.18,39.225 L69.18,32.407 L76.006,32.407 L76.006,39.225 L81.68,39.225 L81.68,32.407 L88.5,32.407 L88.5,39.225 L95.27,64.213 L77.123,64.213 L77.123,64.213 Z" id="Fill-1" fill="#005394" mask="url(#mask-2)"></path>
                </g>
                <polyline id="Fill-4" fill="#1A1918" points="198.948 114.222 191.386 114.222 176.956 73.361 185.767 73.361 192.981 95.283 195.201 102.706 197.42 95.283 204.497 73.361 213.309 73.361 198.948 114.222"></polyline>
                <path d="M216.428,114.224 L224.269,114.224 L224.269,84.468 L216.428,84.468 L216.428,114.224 Z M216.428,79.719 L224.269,79.719 L224.269,73.337 L216.428,73.337 L216.428,79.719 Z" id="Fill-5" fill="#1A1918"></path>
                <polygon id="Fill-6" fill="#1A1918" points="230.51 114.222 238.419 114.222 238.419 73.371 230.51 73.371"></polygon>
                <path d="M261.659,101.179 L253.61,101.179 C250.976,101.179 249.796,102.291 249.796,104.026 C249.796,106.799 251.738,107.979 255.415,107.979 C257.704,107.979 260.341,107.284 261.659,106.59 L261.659,101.179 Z M261.659,114.222 L261.659,112.695 C260.202,113.666 257.288,114.568 254.859,114.568 C247.783,114.568 242.581,110.545 242.581,103.746 C242.581,98.474 247.16,95.076 253.61,95.076 L261.728,95.076 L261.728,93.826 C261.728,91.469 260.479,90.635 256.248,90.635 C252.849,90.635 248.478,91.537 245.564,92.786 L245.564,86.126 C248.271,85.086 252.987,84.115 256.733,84.115 C264.643,84.115 269.012,88.276 269.012,93.826 L269.012,114.222 L261.659,114.222 L261.659,114.222 Z" id="Fill-7" fill="#1A1918"></path>
                <path d="M293.293,114.222 L293.293,95.422 C293.293,91.745 292.045,90.774 288.436,90.774 C286.425,90.774 283.303,91.469 281.569,92.161 L281.569,114.222 L274.215,114.222 L274.215,84.461 L281.569,84.461 L281.569,85.779 C283.72,84.67 286.009,84.183 288.436,84.183 C296.554,84.183 300.646,88.554 300.646,95.144 L300.646,114.222 L293.293,114.222" id="Fill-8" fill="#1A1918"></path>
                <path d="M325.124,94.383 C325.124,91.953 323.39,90.496 320.822,90.496 L316.175,90.496 C313.607,90.496 311.873,91.953 311.873,94.383 L311.873,104.371 C311.873,106.869 313.607,108.326 316.175,108.326 L320.822,108.326 C323.39,108.326 325.124,106.869 325.124,104.371 L325.124,94.383 Z M320.754,114.846 L316.244,114.846 C309.93,114.846 304.59,110.476 304.59,104.162 L304.59,94.519 C304.59,88.207 309.93,83.838 316.244,83.838 L320.754,83.838 C327.066,83.838 332.407,88.207 332.407,94.519 L332.407,104.162 C332.407,110.476 327.066,114.846 320.754,114.846 L320.754,114.846 Z" id="Fill-9" fill="#1A1918"></path>
                <polyline id="Fill-10" fill="#1A1918" points="351.206 114.222 344.894 114.222 333.446 84.461 341.425 84.461 345.657 96.324 348.153 104.51 350.515 96.324 354.675 84.461 362.722 84.461 351.206 114.222"></polyline>
                <path d="M381.452,101.179 L373.401,101.179 C370.767,101.179 369.589,102.291 369.589,104.026 C369.589,106.799 371.53,107.979 375.208,107.979 C377.495,107.979 380.132,107.284 381.452,106.59 L381.452,101.179 Z M381.452,114.222 L381.452,112.695 C379.993,113.666 377.079,114.568 374.653,114.568 C367.575,114.568 362.372,110.545 362.372,103.746 C362.372,98.474 366.952,95.076 373.401,95.076 L381.521,95.076 L381.521,93.826 C381.521,91.469 380.271,90.635 376.04,90.635 C372.64,90.635 368.271,91.537 365.354,92.786 L365.354,86.126 C368.062,85.086 372.776,84.115 376.524,84.115 C384.435,84.115 388.806,88.276 388.806,93.826 L388.806,114.222 L381.452,114.222 L381.452,114.222 Z" id="Fill-11" fill="#1A1918"></path>
                <path d="M407.366,114.222 L415.206,114.222 L415.206,84.507 L407.366,84.507 L407.366,114.222 Z M407.366,79.734 L415.206,79.734 L415.206,73.353 L407.366,73.353 L407.366,79.734 Z" id="Fill-12" fill="#1A1918"></path>
                <polygon id="Fill-13" fill="#1A1918" points="434.021 114.222 441.927 114.222 441.927 73.345 434.021 73.345"></polygon>
                <path d="M464.657,101.179 L456.612,101.179 C453.976,101.179 452.796,102.291 452.796,104.026 C452.796,106.799 454.739,107.979 458.413,107.979 C460.702,107.979 463.341,107.284 464.657,106.59 L464.657,101.179 Z M464.657,114.222 L464.657,112.695 C463.202,113.666 460.288,114.568 457.858,114.568 C450.784,114.568 445.581,110.545 445.581,103.746 C445.581,98.474 450.159,95.076 456.612,95.076 L464.728,95.076 L464.728,93.826 C464.728,91.469 463.478,90.635 459.247,90.635 C455.849,90.635 451.478,91.537 448.562,92.786 L448.562,86.126 C451.269,85.086 455.985,84.115 459.733,84.115 C467.64,84.115 472.013,88.276 472.013,93.826 L472.013,114.222 L464.657,114.222 L464.657,114.222 Z" id="Fill-14" fill="#1A1918"></path>
                <path d="M512.56,114.431 L506.526,114.431 C496.743,114.431 491.263,109.367 491.263,100.278 L491.263,87.305 C491.263,78.495 497.368,72.876 508.188,72.876 C513.046,72.876 517.901,73.361 522.55,75.025 L522.55,82.241 C517.901,80.853 512.905,80.09 508.259,80.09 C501.46,80.09 498.823,82.726 498.823,87.443 L498.823,100.278 C498.823,105.274 500.628,107.284 506.454,107.284 L512.491,107.284 C514.987,107.284 517.069,105.689 517.069,103.123 L517.069,96.601 L508.329,96.601 L508.329,89.732 L524.632,89.732 L524.632,103.123 C524.632,109.712 518.874,114.431 512.56,114.431" id="Fill-15" fill="#1A1918"></path>
                <path d="M547.94,93.826 C547.94,91.885 547.177,91.121 544.956,91.121 L539.821,91.121 C537.255,91.121 536.146,92.161 536.146,94.727 L536.146,96.324 L547.94,96.324 L547.94,93.826 Z M536.146,102.152 L536.146,103.47 C536.146,106.73 537.464,107.979 542.39,107.979 C546.206,107.979 549.95,107.007 552.796,105.828 L552.796,112.556 C549.95,113.875 546.413,114.499 542.458,114.499 C534.411,114.499 528.792,110.685 528.792,103.47 L528.792,94.935 C528.792,88.137 533.647,84.183 540.655,84.183 L544.817,84.183 C550.298,84.183 554.878,88.276 554.878,93.134 L554.878,102.152 L536.146,102.152 L536.146,102.152 Z" id="Fill-16" fill="#1A1918"></path>
                <polygon id="Fill-17" fill="#1A1918" points="560.079 114.222 567.987 114.222 567.987 73.334 560.079 73.334"></polygon>
                <path d="M586.321,114.568 C579.731,114.568 576.333,111.447 576.333,105.413 L576.333,90.704 L572.171,90.704 L572.171,84.461 L576.333,84.461 L576.333,73.334 L583.616,73.334 L583.616,84.461 L590.97,84.461 L590.97,90.704 L583.616,90.704 L583.616,104.717 C583.616,107.076 584.173,107.77 587.017,107.77 C589.376,107.77 592.704,107.216 594.093,106.799 L594.093,113.598 C591.665,114.222 589.306,114.568 586.321,114.568" id="Fill-18" fill="#1A1918"></path>
                <path d="M619.899,93.341 L613.032,93.341 C613.171,92.647 613.171,92.369 613.171,92.022 C613.171,90.774 612.13,90.566 611.019,90.566 C608.593,90.566 605.956,91.537 604.567,92.439 L604.567,114.222 L597.214,114.222 L597.214,84.461 L604.567,84.461 L604.567,86.195 C606.509,85.015 608.87,84.254 611.159,84.254 C615.253,84.254 620.108,86.334 620.108,91.121 C620.108,91.814 620.038,92.508 619.899,93.341" id="Fill-19" fill="#1A1918"></path>
                <path d="M637.519,81.531 L632.179,81.531 L638.144,73.345 L644.04,73.345 L637.519,81.531 Z M641.614,114.292 L641.614,112.834 C639.671,113.875 636.688,114.568 634.468,114.568 C626.974,114.568 622.187,110.408 622.187,103.539 L622.187,84.461 L629.612,84.461 L629.612,103.609 C629.612,106.661 630.929,107.908 634.745,107.908 C637.173,107.908 639.462,107.284 641.614,106.245 L641.614,84.461 L649.036,84.461 L649.036,114.292 L641.614,114.292 L641.614,114.292 Z" id="Fill-20" fill="#1A1918"></path>
                <path d="M189.72,42.622 L188.317,38.335 L186.875,42.622 L185.846,45.631 L190.749,45.631 L189.72,42.622 Z M194.788,56.676 L192.439,49.834 L184.278,49.834 L181.97,56.676 L176.983,56.676 L186.174,32.4 L190.502,32.4 L199.774,56.676 L194.788,56.676 L194.788,56.676 Z" id="Fill-21" fill="#1A1918"></path>
                <path d="M207.32,56.881 C205.425,56.881 203.364,56.676 201.468,56.181 L201.468,51.976 C203.364,52.348 205.383,52.595 207.197,52.595 C209.958,52.595 210.576,51.894 210.576,48.928 L210.576,32.413 L215.232,32.413 L215.232,48.928 C215.232,54.408 212.843,56.881 207.32,56.881" id="Fill-22" fill="#1A1918"></path>
                <path d="M232.648,57.087 L229.599,57.087 C224.571,57.087 220.944,53.708 220.944,48.638 L220.944,32.4 L225.642,32.4 L225.642,48.638 C225.642,51.317 226.96,52.801 229.64,52.801 L232.525,52.801 C235.244,52.801 236.563,51.317 236.563,48.638 L236.563,32.4 L241.262,32.4 L241.262,48.638 C241.262,53.708 237.636,57.087 232.648,57.087" id="Fill-23" fill="#1A1918"></path>
                <polyline id="Fill-24" fill="#1A1918" points="263.145 56.676 253.666 43.898 251.359 40.148 251.564 44.64 251.564 56.676 246.947 56.676 246.947 32.4 250.74 32.4 260.138 45.093 262.692 49.01 262.445 43.982 262.445 32.4 267.062 32.4 267.062 56.676 263.145 56.676"></polyline>
                <polyline id="Fill-25" fill="#1A1918" points="284.111 36.646 284.111 56.676 279.496 56.676 279.496 36.646 271.624 36.646 271.624 32.4 292.025 32.4 292.025 36.646 284.111 36.646"></polyline>
                <path d="M303.523,42.622 L302.121,38.335 L300.68,42.622 L299.65,45.631 L304.555,45.631 L303.523,42.622 Z M308.593,56.676 L306.246,49.834 L298.084,49.834 L295.775,56.676 L290.789,56.676 L299.979,32.4 L304.307,32.4 L313.581,56.676 L308.593,56.676 L308.593,56.676 Z" id="Fill-26" fill="#1A1918"></path>
                <polyline id="Fill-27" fill="#1A1918" points="336.321 56.676 336.321 45.259 336.528 40.849 334.673 44.516 330.511 51.317 328.082 51.317 323.877 44.516 322.021 40.808 322.229 45.259 322.229 56.676 317.571 56.676 317.571 32.4 321.568 32.4 329.274 45.465 336.983 32.4 340.938 32.4 340.938 56.676 336.321 56.676"></polyline>
                <polyline id="Fill-28" fill="#1A1918" points="346.476 56.676 346.476 32.4 363.825 32.4 363.825 36.687 350.964 36.687 350.964 42.127 361.97 42.127 361.97 46.371 350.964 46.371 350.964 52.429 363.825 52.429 363.825 56.676 346.476 56.676"></polyline>
                <polyline id="Fill-29" fill="#1A1918" points="386.007 56.676 376.526 43.898 374.22 40.148 374.425 44.64 374.425 56.676 369.81 56.676 369.81 32.4 373.601 32.4 382.997 45.093 385.552 49.01 385.308 43.982 385.308 32.4 389.923 32.4 389.923 56.676 386.007 56.676"></polyline>
                <polyline id="Fill-30" fill="#1A1918" points="405.708 36.646 405.708 56.676 401.093 56.676 401.093 36.646 393.224 36.646 393.224 32.4 413.622 32.4 413.622 36.646 405.708 36.646"></polyline>
                <path d="M446.897,40.683 C446.897,37.634 445.823,36.687 442.362,36.687 L435.935,36.687 L435.935,52.429 L442.323,52.429 C445.62,52.429 446.897,51.317 446.897,48.062 L446.897,40.683 Z M442.362,56.676 L431.442,56.676 L431.442,32.4 L442.323,32.4 C448.296,32.4 451.39,35.367 451.39,40.683 L451.39,48.062 C451.39,53.914 447.757,56.676 442.362,56.676 L442.362,56.676 Z" id="Fill-31" fill="#1A1918"></path>
                <polyline id="Fill-32" fill="#1A1918" points="454.55 56.676 454.55 32.4 471.903 32.4 471.903 36.687 459.044 36.687 459.044 42.127 470.048 42.127 470.048 46.371 459.044 46.371 459.044 52.429 471.903 52.429 471.903 56.676 454.55 56.676"></polyline>
            </g>
        </g>
    </g>
</svg>