<svg xmlns="http://www.w3.org/2000/svg" width="475.092" height="475.092" viewBox="0 0 475.092 475.092"><path d="M273.372 302.498c-5.04-6.762-10.608-13.045-16.7-18.842-6.09-5.804-12.183-11.088-18.27-15.845-6.093-4.75-11.66-9.32-16.703-13.7-5.05-4.374-9.14-8.945-12.28-13.702-3.14-4.756-4.71-9.61-4.71-14.557 0-6.855 2.19-13.28 6.562-19.274 4.376-5.996 9.706-11.8 15.985-17.417 6.28-5.617 12.56-11.753 18.844-18.415 6.276-6.665 11.604-15.465 15.985-26.412 4.372-10.943 6.562-23.457 6.562-37.54 0-16.75-3.713-32.836-11.136-48.25-7.42-15.42-17.89-27.413-31.403-35.977h38.54L303.2 0H178.44c-17.698 0-35.497 1.906-53.383 5.72-26.453 5.9-48.723 19.368-66.806 40.397-18.08 21.033-27.12 44.873-27.12 71.52 0 28.17 10.14 51.583 30.41 70.233 20.27 18.65 44.588 27.978 72.948 27.978 5.71 0 12.37-.478 19.986-1.427-.38 1.53-1.043 3.57-1.997 6.14s-1.715 4.62-2.286 6.14c-.57 1.52-1.047 3.38-1.425 5.57-.38 2.19-.57 4.43-.57 6.71 0 12.564 6.086 26.745 18.27 42.54-14.464.39-28.736 1.67-42.824 3.86-14.083 2.19-28.832 5.618-44.25 10.28-15.417 4.66-29.217 11.42-41.396 20.27-12.182 8.856-21.317 19.368-27.41 31.55C3.534 361.56.01 374.41.01 386.02c0 12.75 2.857 24.313 8.565 34.69 5.708 10.37 13.035 18.84 21.982 25.405 8.945 6.57 19.273 12.083 30.978 16.562 11.704 4.47 23.315 7.66 34.83 9.562 11.515 1.903 22.887 2.854 34.118 2.854 51.007 0 90.98-12.46 119.91-37.39 26.647-23.222 39.97-50.06 39.97-80.516 0-10.855-1.57-20.984-4.712-30.41-3.14-9.43-7.23-17.513-12.27-24.27zm-110.06-103.776c-9.708 0-18.938-2.475-27.695-7.426-8.757-4.95-16.18-11.374-22.27-19.273-6.088-7.898-11.418-16.796-15.987-26.695-4.567-9.896-7.944-19.792-10.135-29.692-2.19-9.895-3.284-19.318-3.284-28.265 0-18.27 4.86-33.97 14.57-47.1 9.706-13.133 23.41-19.7 41.11-19.7 12.565 0 23.937 3.9 34.12 11.704 10.183 7.804 18.177 17.7 23.984 29.69C203.52 73.95 208 86.37 211.14 99.22c3.14 12.847 4.71 24.983 4.71 36.403 0 19.035-4.138 34.316-12.418 45.83-8.283 11.516-21.65 17.274-40.116 17.274zm78.94 214.4c-5.23 8.95-12.32 15.94-21.268 20.982-8.946 5.048-18.51 8.758-28.693 11.14-10.18 2.385-20.88 3.572-32.12 3.572-12.18 0-24.27-1.43-36.25-4.284-11.99-2.85-23.46-7.187-34.402-12.99-10.943-5.8-19.794-13.8-26.55-23.983-6.757-10.19-10.135-21.75-10.135-34.69 0-11.42 2.568-21.61 7.708-30.55 5.143-8.95 11.71-16.09 19.703-21.41 7.992-5.33 17.32-9.72 27.98-13.13 10.66-3.44 20.934-5.81 30.83-7.14 9.894-1.34 19.984-2 30.26-2 6.283 0 11.043.19 14.277.565 1.142.767 4.042 2.76 8.707 5.996s7.804 5.428 9.423 6.57c1.614 1.137 4.566 3.326 8.85 6.563 4.28 3.235 7.326 5.66 9.134 7.28 1.804 1.615 4.422 4.042 7.85 7.276 3.424 3.237 5.948 6.043 7.566 8.422 1.613 2.377 3.614 5.28 5.994 8.7 2.38 3.434 4.043 6.716 4.998 9.856.948 3.14 1.854 6.564 2.707 10.274.85 3.72 1.28 7.57 1.28 11.57.003 11.987-2.615 22.456-7.85 31.397zM401.998 73.09V0h-36.55v73.09h-73.09v36.546h73.09v73.09H402v-73.09h73.083V73.09z"/></svg>