<svg xmlns="http://www.w3.org/2000/svg" width="449.956" height="449.956" viewBox="0 0 449.956 449.956"><path d="M449.956 85.657c-17.702 7.614-35.408 12.37-53.102 14.28 19.985-11.992 33.503-28.932 40.546-50.82-18.28 10.847-37.787 18.268-58.532 22.267-18.274-19.414-40.73-29.125-67.383-29.125-25.502 0-47.246 8.99-65.24 26.98-17.984 17.98-26.977 39.73-26.977 65.23 0 6.85.76 13.892 2.284 21.13-37.688-1.908-73.042-11.37-106.068-28.41-33.024-17.035-61.05-39.73-84.08-68.09-8.376 14.27-12.564 29.785-12.564 46.534 0 15.798 3.71 30.456 11.136 43.97 7.422 13.512 17.417 24.455 29.98 32.83-14.85-.57-28.743-4.474-41.684-11.707v1.14c0 22.27 6.995 41.825 20.983 58.675C53.245 247.395 70.9 258 92.215 262.38c-7.993 2.09-16.084 3.137-24.267 3.137-5.33 0-11.136-.475-17.416-1.42 5.9 18.46 16.75 33.633 32.546 45.535 15.8 11.896 33.69 18.028 53.677 18.418-33.498 26.262-71.66 39.393-114.486 39.393-8.19 0-15.61-.373-22.27-1.14C42.82 393.9 90.03 407.7 141.61 407.7c32.74 0 63.48-5.18 92.21-15.557 28.747-10.368 53.298-24.266 73.666-41.685 20.362-17.415 37.925-37.448 52.674-60.097 14.75-22.65 25.738-46.29 32.977-70.94 7.23-24.65 10.848-49.342 10.848-74.09 0-5.33-.096-9.325-.287-11.99 18.087-13.13 33.504-29.024 46.258-47.673z"/></svg>