<svg xmlns="http://www.w3.org/2000/svg" width="511.627" height="511.627" viewBox="0 0 511.627 511.627"><path d="M459.954 264.376c-2.47-11.233-7.95-20.653-16.416-28.264-8.474-7.61-18.227-12.085-29.27-13.418-35.02-3.806-87.837-5.708-158.457-5.708-70.61 0-123.34 1.903-158.17 5.708-11.222 1.333-21.03 5.807-29.402 13.418-8.375 7.614-13.895 17.035-16.56 28.264-4.95 22.083-7.424 55.39-7.424 99.93 0 45.3 2.475 78.61 7.423 99.93 2.478 11.226 7.95 20.654 16.42 28.262 8.47 7.614 18.226 11.99 29.264 13.134 35.026 3.997 87.847 5.996 158.46 5.996 70.61 0 123.44-2 158.454-5.996 11.044-1.143 20.75-5.52 29.127-13.134 8.378-7.607 13.898-17.036 16.56-28.26 4.95-22.084 7.427-55.392 7.427-99.93 0-45.3-2.48-78.613-7.425-99.932zm-294.93 28.842h-30.548v162.45h-28.55v-162.45h-29.98V266.38h89.08v26.838zm77.086 162.45H216.7v-15.42c-10.278 11.614-19.99 17.418-29.125 17.418-8.754 0-14.275-3.524-16.556-10.564-1.53-4.568-2.29-11.52-2.29-20.844v-111.63h25.41V418.55c0 6.09.09 9.422.29 9.994.57 3.997 2.57 5.995 5.99 5.995 5.14 0 10.566-4 16.274-12V314.62h25.41v141.04zm97.073-42.257c0 13.9-.855 23.42-2.56 28.56-3.244 10.46-9.996 15.7-20.273 15.7-9.137 0-17.986-5.23-26.556-15.693v13.7h-25.406V266.38h25.406v61.956c8.19-10.273 17.036-15.413 26.556-15.413 10.277 0 17.03 5.33 20.273 15.988 1.704 4.95 2.56 14.37 2.56 28.27v56.24zm96.502-23.4H384.58v24.84c0 13.134 4.375 19.697 13.132 19.697 6.28 0 10.09-3.422 11.42-10.28.376-1.902.57-7.706.57-17.412h25.982v3.71c0 9.33-.195 14.847-.572 16.564-.567 5.133-2.56 10.273-5.995 15.413-6.852 10.09-17.14 15.134-30.84 15.134-13.128 0-23.408-4.854-30.834-14.557-5.517-7.045-8.275-18.085-8.275-33.12v-49.4c0-15.037 2.662-26.077 7.987-33.12 7.427-9.705 17.61-14.558 30.557-14.558 12.755 0 22.85 4.852 30.263 14.557 5.146 7.04 7.71 18.08 7.71 33.12v29.41zm-133.05-53.96c-4.38 0-8.66 2.1-12.848 6.28v85.936c4.188 4.187 8.467 6.28 12.847 6.28 7.42 0 11.14-6.372 11.14-19.13V355.18c0-12.756-3.713-19.13-11.14-19.13zm94.793 0c-8.565 0-12.847 6.475-12.847 19.41v13.134h25.7V355.46c0-12.943-4.282-19.41-12.844-19.41zM148.473 113.92v77.375h28.55V113.92L211.563 0h-29.12l-19.41 75.09L142.757 0h-30.263c5.33 15.99 11.516 33.785 18.56 53.39 8.946 26.266 14.748 46.445 17.416 60.527zm101.347 79.37c13.134 0 23.22-4.853 30.262-14.56 5.332-7.043 7.994-18.274 7.994-33.69V95.076c0-15.225-2.67-26.363-7.994-33.406-7.043-9.708-17.128-14.562-30.262-14.562-12.756 0-22.75 4.854-29.98 14.56-5.327 7.044-7.992 18.182-7.992 33.407v49.965c0 15.225 2.662 26.457 7.992 33.69 7.233 9.707 17.223 14.56 29.98 14.56zM237.54 89.936c0-13.134 4.094-19.7 12.28-19.7s12.275 6.566 12.275 19.7v59.955c0 13.33-4.09 19.99-12.275 19.99s-12.28-6.66-12.28-19.982v-59.96zm90.788 103.354c9.523 0 19.328-5.9 29.413-17.704v15.703h25.99V48.82h-25.98V157.6c-5.713 8.185-11.134 12.274-16.28 12.274-3.43 0-5.43-2.093-5.996-6.28-.19-.38-.287-3.715-.287-9.994V48.822H309.2v112.492c0 9.705.766 16.84 2.285 21.41 2.477 7.044 8.09 10.567 16.844 10.567z"/></svg>